<svg width="1.3em" height="1.3em" viewBox="0 0 16 13" fill="none" xmlns="http://www.w3.org/2000/svg">
                        <path d="M1.6 0V1.95L0 4.08333V4.26667C0 5.14375 0.722917 5.86667 1.6 5.86667V12.8H10.1333V8H11.2V12.8H14.4V5.86667C15.2771 5.86667 16 5.14375 16 4.26667V4.08333L14.4 1.95V0H1.6ZM2.66667 1.06667H13.3333V1.6H2.66667V1.06667ZM2.4 2.66667H13.6L14.8833 4.38333C14.825 4.61458 14.65 4.8 14.4 4.8C14.1042 4.8 13.8667 4.5625 13.8667 4.26667H12.8C12.8 4.5625 12.5625 4.8 12.2667 4.8C11.9708 4.8 11.7333 4.5625 11.7333 4.26667H10.6667C10.6667 4.5625 10.4292 4.8 10.1333 4.8C9.8375 4.8 9.6 4.5625 9.6 4.26667H8.53333C8.53333 4.5625 8.29583 4.8 8 4.8C7.70417 4.8 7.46667 4.5625 7.46667 4.26667H6.4C6.4 4.5625 6.1625 4.8 5.86667 4.8C5.57083 4.8 5.33333 4.5625 5.33333 4.26667H4.26667C4.26667 4.5625 4.02917 4.8 3.73333 4.8C3.4375 4.8 3.2 4.5625 3.2 4.26667H2.13333C2.13333 4.5625 1.89583 4.8 1.6 4.8C1.35 4.8 1.175 4.61458 1.11667 4.38333L2.4 2.66667ZM2.66667 5.45C2.95 5.70625 3.325 5.86667 3.73333 5.86667C4.14167 5.86667 4.51667 5.70625 4.8 5.45C5.08333 5.70625 5.45833 5.86667 5.86667 5.86667C6.275 5.86667 6.65 5.70625 6.93333 5.45C7.21667 5.70625 7.59167 5.86667 8 5.86667C8.40833 5.86667 8.78333 5.70625 9.06667 5.45C9.35 5.70625 9.725 5.86667 10.1333 5.86667C10.5417 5.86667 10.9167 5.70625 11.2 5.45C11.4833 5.70625 11.8583 5.86667 12.2667 5.86667C12.675 5.86667 13.05 5.70625 13.3333 5.45V11.7333H12.2667V6.93333H9.06667V11.7333H2.66667V5.45ZM3.73333 6.93333V10.6667H8V6.93333H3.73333ZM4.8 8H6.93333V9.6H4.8V8Z" fill="currentColor"/>
                    </svg>